<svg width="32" height="32" viewBox="0 0 32 32" fill="none" xmlns="http://www.w3.org/2000/svg">
<path d="M16 29.3337C8.63619 29.3337 2.66666 23.3641 2.66666 16.0003C2.66666 8.63653 8.63619 2.66699 16 2.66699C23.3637 2.66699 29.3333 8.63653 29.3333 16.0003C29.3333 23.3641 23.3637 29.3337 16 29.3337ZM16 26.667C21.8911 26.667 26.6667 21.8914 26.6667 16.0003C26.6667 10.1093 21.8911 5.33366 16 5.33366C10.1089 5.33366 5.33332 10.1093 5.33332 16.0003C5.33332 21.8914 10.1089 26.667 16 26.667ZM17.3333 16.0003H22.6667V18.667H14.6667V9.33366H17.3333V16.0003Z" fill="#C12F2D"/>
</svg>
