<svg width="32" height="32" viewBox="0 0 32 32" fill="none" xmlns="http://www.w3.org/2000/svg">
<path d="M29.3333 22.6699C29.332 26.4978 26.6421 29.6971 23.0496 30.4825L22.1989 27.9305C23.8043 27.6685 25.1687 26.6898 25.9532 25.3337H22.6667C21.1939 25.3337 20 24.1398 20 22.667V17.3337C20 15.8609 21.1939 14.667 22.6667 14.667H26.5841C25.928 9.40525 21.4395 5.33366 16 5.33366C10.5605 5.33366 6.07198 9.40525 5.41584 14.667H9.33332C10.8061 14.667 12 15.8609 12 17.3337V22.667C12 24.1398 10.8061 25.3337 9.33332 25.3337H5.33332C3.86056 25.3337 2.66666 24.1398 2.66666 22.667V16.0003C2.66666 8.63653 8.63619 2.66699 16 2.66699C23.3637 2.66699 29.3333 8.63653 29.3333 16.0003V17.3319V17.3337V22.667V22.6699ZM26.6667 22.667V17.3337H22.6667V22.667H26.6667ZM5.33332 17.3337V22.667H9.33332V17.3337H5.33332Z" fill="#C12F2D"/>
</svg>
